HIERARCHY
ROOT Hips
{
  OFFSET 32.7153 104.632 -28.08
  CHANNELS 6 Xposition Yposition Zposition Zrotation Xrotation Yrotation
  JOINT RightUpLeg
  {
    OFFSET -8.9458 -8.66707 0.101652
    CHANNELS 3 Zrotation Xrotation Yrotation
    JOINT RightLeg
    {
      OFFSET 0 -44.4227 1.3727
      CHANNELS 3 Zrotation Xrotation Yrotation
      JOINT RightFoot
      {
        OFFSET 0.253549 -42.0924 -1.46059
        CHANNELS 3 Zrotation Xrotation Yrotation
        JOINT RightToes
        {
          OFFSET 0.04 -4.41509 8.4991
          CHANNELS 3 Zrotation Xrotation Yrotation
          End Site
          {
            OFFSET -0.08 -0.137448 9.77979
          }
        }
      }
    }
  }
  JOINT Spine
  {
    OFFSET 0 11.8905 0
    CHANNELS 3 Zrotation Xrotation Yrotation
    JOINT Spine1
    {
      OFFSET 0 25.6574 0.127663
      CHANNELS 3 Zrotation Xrotation Yrotation
      JOINT HEad
      {
        OFFSET 0 8.73416 0.011341
        CHANNELS 3 Zrotation Xrotation Yrotation
        End Site
        {
          OFFSET -0.29 12.7742 2.51395
        }
      }
      JOINT LeftShoulder1
      {
        OFFSET 8.99 -0.362252 -0.22
        CHANNELS 3 Zrotation Xrotation Yrotation
        JOINT LeftArm
        {
          OFFSET 10.2827 -0.00338 0.322123
          CHANNELS 3 Zrotation Xrotation Yrotation
          JOINT LeftForeArm
          {
            OFFSET 32.7669 0.099144 -1.42434
            CHANNELS 3 Zrotation Xrotation Yrotation
            JOINT LeftHand
            {
              OFFSET 27.5643 0.085362 1.02216
              CHANNELS 3 Zrotation Xrotation Yrotation
              End Site
              {
                OFFSET 16.7443 -0.6 1.50291
              }
            }
          }
        }
      }
      JOINT RightShoulder
      {
        OFFSET -8.99 -0.362252 -0.22
        CHANNELS 3 Zrotation Xrotation Yrotation
        JOINT RightArm
        {
          OFFSET -10.2827 -0.00338 0.322123
          CHANNELS 3 Zrotation Xrotation Yrotation
          JOINT RightForeArm
          {
            OFFSET -32.8971 0.099144 -1.42434
            CHANNELS 3 Zrotation Xrotation Yrotation
            JOINT RightHand
            {
              OFFSET -30.0137 1.42257 -0.284231
              CHANNELS 3 Zrotation Xrotation Yrotation
              End Site
              {
                OFFSET -16.6312 -0.6 1.50291
              }
            }
          }
        }
      }
    }
  }
  JOINT LeftUpLeg
  {
    OFFSET 8.9458 -8.66707 0.101652
    CHANNELS 3 Zrotation Xrotation Yrotation
    JOINT LeftLeg
    {
      OFFSET 0 -44.4227 1.3727
      CHANNELS 3 Zrotation Xrotation Yrotation
      JOINT LeftFoot
      {
        OFFSET -0.253549 -42.0924 -1.46059
        CHANNELS 3 Zrotation Xrotation Yrotation
        JOINT LeftToes
        {
          OFFSET -0.04 -4.41509 8.4991
          CHANNELS 3 Zrotation Xrotation Yrotation
          End Site
          {
            OFFSET 0.08 -0.047448 9.77979
          }
        }
      }
    }
  }
}
MOTION
Frames:	7
Frame Time:	0.0166667
40.0844 96.9777 -7.76466 9.37193 12.7633 150.414 -28.8993 3.69953 -4.24364 36.0525 50.4309 -2.15521 -31.1237 1.11034 -1.52702 0.0462048 0.000533403 0.662642 -9.27922 23.3534 -17.6805 0.0186212 4.35301e-008 0.0823396 4.37881 12.0502 12.8907 0 0 -0 -157.037 -67.5637 -136.002 -104.266 37.4337 -23.846 47.4508 56.7875 -53.3254 16.6914 31.9509 66.3994 -62.2278 -74.2477 -107.057 64.2276 16.0708 33.8911 56.9091 11.5135 19.3093 15.0751 -16.9618 -33.4943 -29.6066 14.3486 77.8493 13.2665 -2.88623 0.581665 -9.35095e-009 1.56019e-007 -4.87131e-009 
39.7994 97.1163 -7.90775 8.10985 15.0627 158.167 -29.4652 7.32263 -6.13889 31.7354 52.1928 7.32343 -29.6285 1.04161 -1.5333 0.0462048 0.000533403 0.662642 -6.92975 26.0378 -20.05 0.0226155 0.00236874 0.0650564 2.98759 9.93246 12.7423 1.59028e-015 -1.59028e-015 -0 -171.701 -63.8504 -151.894 -109.858 40.9063 -19.1532 35.1354 37.5672 -32.9738 12.0622 27.9647 74.9121 -89.111 -77.0635 -135.871 68.2938 15.0221 34.4038 53.8745 12.3341 21.5053 10.1246 -16.866 -37.6253 -28.1433 14.8829 75.1909 15.3922 -3.00256 0.726656 -9.35095e-009 1.56019e-007 -4.87131e-009 
39.3812 97.3912 -8.42854 6.19867 17.4173 167.047 -30.108 11.939 -7.16411 27.6858 52.1858 15.1795 -24.4953 0.956793 -1.61267 0.0462048 0.000533403 0.662642 -3.74064 28.2637 -22.8579 0.00827459 0.00906466 0.0537405 0.711917 7.83888 12.4858 -7.95139e-016 0 6.36111e-015 179.351 -59.257 -161.603 -115.35 44.0487 -14.8483 31.1352 34.7356 -33.4759 13.5287 25.2807 67.9587 -167.989 -85.5994 148.383 72.0145 13.4628 35.0909 52.1461 14.0956 22.3127 4.51147 -15.7775 -41.6591 -26.4135 15.7219 71.7486 17.412 -3.40617 0.840612 -9.35094e-009 1.56019e-007 -4.87132e-009 
38.9316 97.6913 -9.24732 3.5177 19.5285 176.985 -30.341 17.4229 -7.7644 26.4919 51.4825 17.2443 -20.001 1.64353 -1.72139 0.0462048 0.000533403 0.662642 0.0610411 29.7244 -26.1271 -0.0111393 0.0194721 0.041672 -2.38892 6.06638 12.2137 -7.95139e-016 -1.59028e-015 -3.18055e-015 174.962 -54.8009 -166.74 -118.962 46.8609 -11.2905 28.0569 17.5372 -25.0611 14.2456 22.2375 60.8044 131.642 -75.7405 91.1492 75.5888 11.9293 35.9304 50.201 15.4006 22.8649 -1.27587 -13.746 -45.3586 -24.6499 16.9443 67.6155 19.1387 -4.17324 0.938461 -9.35095e-009 1.56019e-007 -4.87132e-009 
38.4844 98.0401 -10.3025 0.970747 20.9586 -174.439 -29.8787 22.5858 -6.44113 28.2485 48.2495 14.6369 -16.0323 2.25957 -2.04222 0.0462048 0.000533403 0.662642 3.82481 30.04 -27.3686 -0.0285295 0.0329758 0.0273421 -6.27154 5.03663 11.9814 3.97569e-016 1.59028e-015 -0 176.925 -52.2929 -162.853 -121.743 48.9124 -8.00407 25.899 14.902 -26.629 7.01556 12.7338 62.0417 147.891 -66.4776 102.47 79.1016 11.0884 36.6544 49.1095 17.7024 22.4227 -5.81211 -11.0894 -46.5579 -22.4143 18.5892 62.6519 20.3285 -5.11157 1.0296 -9.35095e-009 1.56019e-007 -4.87132e-009 
38.062 98.4334 -11.5612 -1.29083 21.8731 -167.207 -28.7713 27.4994 -3.68703 30.9098 43.159 9.68191 -13.1141 3.12181 -2.33233 0.0462048 0.000533403 0.662642 7.21156 29.5305 -26.537 -0.0552412 0.0489519 0.0206622 -9.92572 5.12119 10.2817 3.97569e-016 -1.59028e-015 -0 -177.398 -50.9146 -153.707 -123.267 50.2712 -5.36657 25.7952 7.32833 -23.0554 6.57175 11.1238 52.5777 137.501 -53.8677 96.2768 82.0525 10.418 36.8343 48.2082 18.9272 20.9646 -9.46334 -8.15527 -45.5218 -19.1554 20.9023 56.6827 20.6159 -6.10626 1.13074 -9.35095e-009 1.56019e-007 -4.87132e-009 
37.6694 98.8808 -12.9884 -3.1806 22.4205 -161.275 -27.1268 32.2377 0.123726 33.0706 36.5651 3.92311 -10.6563 4.18515 -2.59134 0.0462048 0.000533403 0.662642 10.0913 28.5111 -23.7216 -0.0801745 0.0713442 0.0147368 -13.0999 6.35293 7.30025 5.96354e-016 0 -0 -168.882 -49.5501 -140.897 -123.365 51.2053 -3.75737 24.4157 7.27207 -24.7118 6.09935 10.0595 42.5594 131.741 -40.1812 95.6212 84.0881 9.28876 36.369 47.6251 20.3868 19.426 -12.2606 -5.09857 -42.5596 -14.7354 23.2737 49.4797 20.1253 -7.03925 1.32914 -9.35094e-009 1.56019e-007 -4.87132e-009 
